<mxfile host="app.diagrams.net" modified="2022-03-23T05:33:30.076Z" agent="5.0 (Windows NT 10.0; Win64; x64) AppleWebKit/537.36 (KHTML, like Gecko) Chrome/99.0.4844.82 Safari/537.36" etag="Kcgy795ezkwzQ42dIkhu" version="17.1.4" type="github">
  <diagram id="z-hKkfVoZV9N4qIbb6t8" name="Page-1">
    <mxGraphModel dx="1108" dy="1619" grid="1" gridSize="10" guides="1" tooltips="1" connect="1" arrows="1" fold="1" page="1" pageScale="1" pageWidth="827" pageHeight="1169" math="0" shadow="0">
      <root>
        <mxCell id="0" />
        <mxCell id="1" parent="0" />
        <mxCell id="gLzJ9o-8NtYaDPZ5mTfc-1" value="Usuario" style="rounded=0;whiteSpace=wrap;html=1;" vertex="1" parent="1">
          <mxGeometry x="40" y="40" width="120" height="60" as="geometry" />
        </mxCell>
        <mxCell id="gLzJ9o-8NtYaDPZ5mTfc-2" value="Faz" style="rhombus;whiteSpace=wrap;html=1;" vertex="1" parent="1">
          <mxGeometry x="240" y="40" width="80" height="60" as="geometry" />
        </mxCell>
        <mxCell id="gLzJ9o-8NtYaDPZ5mTfc-3" value="Cadastro" style="rounded=0;whiteSpace=wrap;html=1;" vertex="1" parent="1">
          <mxGeometry x="400" y="40" width="120" height="60" as="geometry" />
        </mxCell>
        <mxCell id="gLzJ9o-8NtYaDPZ5mTfc-4" value="" style="endArrow=classic;html=1;rounded=0;entryX=0;entryY=0.5;entryDx=0;entryDy=0;" edge="1" parent="1" target="gLzJ9o-8NtYaDPZ5mTfc-2">
          <mxGeometry width="50" height="50" relative="1" as="geometry">
            <mxPoint x="160" y="69.5" as="sourcePoint" />
            <mxPoint x="230" y="69.5" as="targetPoint" />
          </mxGeometry>
        </mxCell>
        <mxCell id="gLzJ9o-8NtYaDPZ5mTfc-5" value="" style="endArrow=classic;html=1;rounded=0;exitX=1;exitY=0.5;exitDx=0;exitDy=0;" edge="1" parent="1" source="gLzJ9o-8NtYaDPZ5mTfc-2">
          <mxGeometry width="50" height="50" relative="1" as="geometry">
            <mxPoint x="330" y="69.5" as="sourcePoint" />
            <mxPoint x="400" y="69.5" as="targetPoint" />
          </mxGeometry>
        </mxCell>
        <mxCell id="gLzJ9o-8NtYaDPZ5mTfc-6" value="(1,1)" style="text;html=1;strokeColor=none;fillColor=none;align=center;verticalAlign=middle;whiteSpace=wrap;rounded=0;" vertex="1" parent="1">
          <mxGeometry x="170" y="40" width="60" height="30" as="geometry" />
        </mxCell>
        <mxCell id="gLzJ9o-8NtYaDPZ5mTfc-7" value="(1,1)" style="text;html=1;strokeColor=none;fillColor=none;align=center;verticalAlign=middle;whiteSpace=wrap;rounded=0;" vertex="1" parent="1">
          <mxGeometry x="340" y="40" width="60" height="30" as="geometry" />
        </mxCell>
        <mxCell id="gLzJ9o-8NtYaDPZ5mTfc-8" value="Um cadastro pode estar relacionada a um usuario (1)" style="text;html=1;strokeColor=none;fillColor=none;align=center;verticalAlign=middle;whiteSpace=wrap;rounded=0;" vertex="1" parent="1">
          <mxGeometry x="20" y="110" width="160" height="60" as="geometry" />
        </mxCell>
        <mxCell id="gLzJ9o-8NtYaDPZ5mTfc-10" value="Enquanto um usuario pode estar vinculado a um cadastro (1)" style="text;html=1;strokeColor=none;fillColor=none;align=center;verticalAlign=middle;whiteSpace=wrap;rounded=0;" vertex="1" parent="1">
          <mxGeometry x="20" y="170" width="180" height="40" as="geometry" />
        </mxCell>
        <mxCell id="gLzJ9o-8NtYaDPZ5mTfc-14" value="&lt;span&gt;1 representa que usuario pode estar relacionado a um cadastro&lt;/span&gt;" style="text;html=1;strokeColor=none;fillColor=none;align=center;verticalAlign=middle;whiteSpace=wrap;rounded=0;" vertex="1" parent="1">
          <mxGeometry x="545" y="100" width="210" height="45" as="geometry" />
        </mxCell>
        <mxCell id="gLzJ9o-8NtYaDPZ5mTfc-16" value="Enquanto o cadastro pode estar relacioando a um usuario(funcionario)" style="text;html=1;strokeColor=none;fillColor=none;align=center;verticalAlign=middle;whiteSpace=wrap;rounded=0;" vertex="1" parent="1">
          <mxGeometry x="540" y="160" width="250" height="30" as="geometry" />
        </mxCell>
        <mxCell id="gLzJ9o-8NtYaDPZ5mTfc-17" value="" style="endArrow=classic;html=1;rounded=0;entryX=0.5;entryY=0;entryDx=0;entryDy=0;" edge="1" parent="1" target="gLzJ9o-8NtYaDPZ5mTfc-20">
          <mxGeometry width="50" height="50" relative="1" as="geometry">
            <mxPoint x="459.5" y="100" as="sourcePoint" />
            <mxPoint x="460" y="160" as="targetPoint" />
          </mxGeometry>
        </mxCell>
        <mxCell id="gLzJ9o-8NtYaDPZ5mTfc-20" value="Ã‰ usado por&amp;nbsp;" style="rhombus;whiteSpace=wrap;html=1;" vertex="1" parent="1">
          <mxGeometry x="410" y="160" width="100" height="60" as="geometry" />
        </mxCell>
        <mxCell id="gLzJ9o-8NtYaDPZ5mTfc-21" value="Aluno" style="rounded=0;whiteSpace=wrap;html=1;" vertex="1" parent="1">
          <mxGeometry x="400" y="240" width="120" height="60" as="geometry" />
        </mxCell>
        <mxCell id="gLzJ9o-8NtYaDPZ5mTfc-22" value="" style="endArrow=classic;html=1;rounded=0;entryX=0.5;entryY=0;entryDx=0;entryDy=0;" edge="1" parent="1" target="gLzJ9o-8NtYaDPZ5mTfc-21">
          <mxGeometry width="50" height="50" relative="1" as="geometry">
            <mxPoint x="459.5" y="220" as="sourcePoint" />
            <mxPoint x="459.5" y="240" as="targetPoint" />
          </mxGeometry>
        </mxCell>
        <mxCell id="gLzJ9o-8NtYaDPZ5mTfc-23" value="(1,1)" style="text;html=1;strokeColor=none;fillColor=none;align=center;verticalAlign=middle;whiteSpace=wrap;rounded=0;" vertex="1" parent="1">
          <mxGeometry x="460" y="300" width="60" height="30" as="geometry" />
        </mxCell>
        <mxCell id="gLzJ9o-8NtYaDPZ5mTfc-24" value="" style="endArrow=classic;html=1;rounded=0;entryX=0.5;entryY=0;entryDx=0;entryDy=0;" edge="1" parent="1" target="gLzJ9o-8NtYaDPZ5mTfc-26">
          <mxGeometry width="50" height="50" relative="1" as="geometry">
            <mxPoint x="459.5" y="300" as="sourcePoint" />
            <mxPoint x="460" y="340" as="targetPoint" />
          </mxGeometry>
        </mxCell>
        <mxCell id="gLzJ9o-8NtYaDPZ5mTfc-26" value="Faz" style="rhombus;whiteSpace=wrap;html=1;" vertex="1" parent="1">
          <mxGeometry x="420" y="340" width="80" height="60" as="geometry" />
        </mxCell>
        <mxCell id="gLzJ9o-8NtYaDPZ5mTfc-27" value="Matricula" style="rounded=0;whiteSpace=wrap;html=1;" vertex="1" parent="1">
          <mxGeometry x="560" y="340" width="120" height="60" as="geometry" />
        </mxCell>
        <mxCell id="gLzJ9o-8NtYaDPZ5mTfc-28" value="" style="endArrow=classic;html=1;rounded=0;exitX=1;exitY=0.5;exitDx=0;exitDy=0;entryX=0;entryY=0.5;entryDx=0;entryDy=0;" edge="1" parent="1" source="gLzJ9o-8NtYaDPZ5mTfc-26" target="gLzJ9o-8NtYaDPZ5mTfc-27">
          <mxGeometry width="50" height="50" relative="1" as="geometry">
            <mxPoint x="510" y="369" as="sourcePoint" />
            <mxPoint x="550" y="369" as="targetPoint" />
          </mxGeometry>
        </mxCell>
        <mxCell id="gLzJ9o-8NtYaDPZ5mTfc-29" value="(0,N)" style="text;html=1;strokeColor=none;fillColor=none;align=center;verticalAlign=middle;whiteSpace=wrap;rounded=0;" vertex="1" parent="1">
          <mxGeometry x="500" y="370" width="60" height="30" as="geometry" />
        </mxCell>
        <mxCell id="gLzJ9o-8NtYaDPZ5mTfc-30" value="Professor" style="rounded=0;whiteSpace=wrap;html=1;" vertex="1" parent="1">
          <mxGeometry x="30" y="280" width="120" height="60" as="geometry" />
        </mxCell>
        <mxCell id="gLzJ9o-8NtYaDPZ5mTfc-36" value="Faz" style="rhombus;whiteSpace=wrap;html=1;" vertex="1" parent="1">
          <mxGeometry x="50" y="400" width="80" height="60" as="geometry" />
        </mxCell>
        <mxCell id="gLzJ9o-8NtYaDPZ5mTfc-37" value="" style="endArrow=classic;html=1;rounded=0;entryX=0.5;entryY=0;entryDx=0;entryDy=0;exitX=0.5;exitY=1;exitDx=0;exitDy=0;" edge="1" parent="1" source="gLzJ9o-8NtYaDPZ5mTfc-30" target="gLzJ9o-8NtYaDPZ5mTfc-36">
          <mxGeometry width="50" height="50" relative="1" as="geometry">
            <mxPoint x="90" y="350" as="sourcePoint" />
            <mxPoint x="90" y="400" as="targetPoint" />
          </mxGeometry>
        </mxCell>
        <mxCell id="gLzJ9o-8NtYaDPZ5mTfc-38" value="(1,1)" style="text;html=1;strokeColor=none;fillColor=none;align=center;verticalAlign=middle;whiteSpace=wrap;rounded=0;" vertex="1" parent="1">
          <mxGeometry x="80" y="340" width="60" height="30" as="geometry" />
        </mxCell>
        <mxCell id="gLzJ9o-8NtYaDPZ5mTfc-39" value="Cadastro curso" style="rounded=0;whiteSpace=wrap;html=1;" vertex="1" parent="1">
          <mxGeometry x="30" y="520" width="120" height="60" as="geometry" />
        </mxCell>
        <mxCell id="gLzJ9o-8NtYaDPZ5mTfc-40" value="" style="endArrow=classic;html=1;rounded=0;entryX=0.5;entryY=0;entryDx=0;entryDy=0;exitX=0.5;exitY=1;exitDx=0;exitDy=0;" edge="1" parent="1" source="gLzJ9o-8NtYaDPZ5mTfc-36" target="gLzJ9o-8NtYaDPZ5mTfc-39">
          <mxGeometry width="50" height="50" relative="1" as="geometry">
            <mxPoint x="89" y="470" as="sourcePoint" />
            <mxPoint x="89" y="510" as="targetPoint" />
          </mxGeometry>
        </mxCell>
        <mxCell id="gLzJ9o-8NtYaDPZ5mTfc-41" value="" style="endArrow=none;html=1;rounded=0;exitX=0;exitY=0.5;exitDx=0;exitDy=0;" edge="1" parent="1" source="gLzJ9o-8NtYaDPZ5mTfc-59">
          <mxGeometry width="50" height="50" relative="1" as="geometry">
            <mxPoint x="180" y="310" as="sourcePoint" />
            <mxPoint x="150" y="310" as="targetPoint" />
            <Array as="points" />
          </mxGeometry>
        </mxCell>
        <mxCell id="gLzJ9o-8NtYaDPZ5mTfc-42" value="&lt;b&gt;CPF&lt;/b&gt;" style="text;html=1;strokeColor=none;fillColor=none;align=center;verticalAlign=middle;whiteSpace=wrap;rounded=0;" vertex="1" parent="1">
          <mxGeometry x="180" y="265" width="60" height="30" as="geometry" />
        </mxCell>
        <mxCell id="gLzJ9o-8NtYaDPZ5mTfc-58" value="" style="endArrow=none;html=1;rounded=0;labelBackgroundColor=default;fontFamily=Helvetica;fontSize=11;fontColor=default;strokeColor=default;shape=connector;exitX=1;exitY=0;exitDx=0;exitDy=0;entryX=0;entryY=0.5;entryDx=0;entryDy=0;" edge="1" parent="1" source="gLzJ9o-8NtYaDPZ5mTfc-38" target="gLzJ9o-8NtYaDPZ5mTfc-75">
          <mxGeometry width="50" height="50" relative="1" as="geometry">
            <mxPoint x="150" y="329.5" as="sourcePoint" />
            <mxPoint x="180" y="340" as="targetPoint" />
          </mxGeometry>
        </mxCell>
        <mxCell id="gLzJ9o-8NtYaDPZ5mTfc-59" value="&lt;b&gt;Telefone&lt;/b&gt;" style="text;html=1;strokeColor=none;fillColor=none;align=center;verticalAlign=middle;whiteSpace=wrap;rounded=0;fontFamily=Helvetica;fontSize=11;fontColor=default;" vertex="1" parent="1">
          <mxGeometry x="180" y="295" width="60" height="30" as="geometry" />
        </mxCell>
        <mxCell id="gLzJ9o-8NtYaDPZ5mTfc-61" value="&lt;b&gt;Nome&lt;/b&gt;" style="text;html=1;strokeColor=none;fillColor=none;align=center;verticalAlign=middle;whiteSpace=wrap;rounded=0;fontFamily=Helvetica;fontSize=11;fontColor=default;" vertex="1" parent="1">
          <mxGeometry x="180" y="235" width="60" height="30" as="geometry" />
        </mxCell>
        <mxCell id="gLzJ9o-8NtYaDPZ5mTfc-65" value="" style="endArrow=none;html=1;rounded=0;labelBackgroundColor=default;fontFamily=Helvetica;fontSize=11;fontColor=default;strokeColor=default;shape=connector;entryX=0;entryY=0.5;entryDx=0;entryDy=0;" edge="1" parent="1" target="gLzJ9o-8NtYaDPZ5mTfc-42">
          <mxGeometry width="50" height="50" relative="1" as="geometry">
            <mxPoint x="150" y="284.5" as="sourcePoint" />
            <mxPoint x="180" y="285" as="targetPoint" />
          </mxGeometry>
        </mxCell>
        <mxCell id="gLzJ9o-8NtYaDPZ5mTfc-69" value="" style="endArrow=none;html=1;rounded=0;labelBackgroundColor=default;fontFamily=Helvetica;fontSize=11;fontColor=default;strokeColor=default;shape=connector;elbow=vertical;exitX=0.692;exitY=-0.017;exitDx=0;exitDy=0;exitPerimeter=0;entryX=0;entryY=0.5;entryDx=0;entryDy=0;" edge="1" parent="1" source="gLzJ9o-8NtYaDPZ5mTfc-30" target="gLzJ9o-8NtYaDPZ5mTfc-61">
          <mxGeometry width="50" height="50" relative="1" as="geometry">
            <mxPoint x="120" y="264.5" as="sourcePoint" />
            <mxPoint x="180" y="264.5" as="targetPoint" />
          </mxGeometry>
        </mxCell>
        <mxCell id="gLzJ9o-8NtYaDPZ5mTfc-75" value="&lt;b&gt;EndereÃ§o&lt;/b&gt;" style="text;html=1;strokeColor=none;fillColor=none;align=center;verticalAlign=middle;whiteSpace=wrap;rounded=0;fontFamily=Helvetica;fontSize=11;fontColor=default;" vertex="1" parent="1">
          <mxGeometry x="180" y="325" width="60" height="30" as="geometry" />
        </mxCell>
        <mxCell id="gLzJ9o-8NtYaDPZ5mTfc-77" value="(1,N)" style="text;html=1;strokeColor=none;fillColor=none;align=center;verticalAlign=middle;whiteSpace=wrap;rounded=0;fontFamily=Helvetica;fontSize=11;fontColor=default;" vertex="1" parent="1">
          <mxGeometry x="80" y="490" width="60" height="30" as="geometry" />
        </mxCell>
        <mxCell id="gLzJ9o-8NtYaDPZ5mTfc-78" value="" style="endArrow=classic;html=1;rounded=0;labelBackgroundColor=default;fontFamily=Helvetica;fontSize=11;fontColor=default;strokeColor=default;shape=connector;elbow=vertical;" edge="1" parent="1" source="gLzJ9o-8NtYaDPZ5mTfc-30" target="gLzJ9o-8NtYaDPZ5mTfc-104">
          <mxGeometry width="50" height="50" relative="1" as="geometry">
            <mxPoint x="140" y="380" as="sourcePoint" />
            <mxPoint x="300" y="500" as="targetPoint" />
          </mxGeometry>
        </mxCell>
        <mxCell id="gLzJ9o-8NtYaDPZ5mTfc-79" value="Ã‰ feita em" style="rhombus;whiteSpace=wrap;html=1;fontFamily=Helvetica;fontSize=11;fontColor=default;" vertex="1" parent="1">
          <mxGeometry x="580" y="460" width="80" height="70" as="geometry" />
        </mxCell>
        <mxCell id="gLzJ9o-8NtYaDPZ5mTfc-80" value="" style="endArrow=classic;html=1;rounded=0;labelBackgroundColor=default;fontFamily=Helvetica;fontSize=11;fontColor=default;strokeColor=default;shape=connector;elbow=vertical;exitX=0.5;exitY=1;exitDx=0;exitDy=0;entryX=0.5;entryY=0;entryDx=0;entryDy=0;" edge="1" parent="1" source="gLzJ9o-8NtYaDPZ5mTfc-27" target="gLzJ9o-8NtYaDPZ5mTfc-79">
          <mxGeometry width="50" height="50" relative="1" as="geometry">
            <mxPoint x="630" y="430" as="sourcePoint" />
            <mxPoint x="620" y="450" as="targetPoint" />
          </mxGeometry>
        </mxCell>
        <mxCell id="gLzJ9o-8NtYaDPZ5mTfc-81" value="Curso" style="rounded=0;whiteSpace=wrap;html=1;fontFamily=Helvetica;fontSize=11;fontColor=default;" vertex="1" parent="1">
          <mxGeometry x="560" y="580" width="120" height="60" as="geometry" />
        </mxCell>
        <mxCell id="gLzJ9o-8NtYaDPZ5mTfc-82" value="" style="endArrow=classic;html=1;rounded=0;labelBackgroundColor=default;fontFamily=Helvetica;fontSize=11;fontColor=default;strokeColor=default;shape=connector;elbow=vertical;entryX=0.5;entryY=0;entryDx=0;entryDy=0;exitX=0.5;exitY=1;exitDx=0;exitDy=0;" edge="1" parent="1" source="gLzJ9o-8NtYaDPZ5mTfc-79" target="gLzJ9o-8NtYaDPZ5mTfc-81">
          <mxGeometry width="50" height="50" relative="1" as="geometry">
            <mxPoint x="619.5" y="540" as="sourcePoint" />
            <mxPoint x="619.5" y="580" as="targetPoint" />
          </mxGeometry>
        </mxCell>
        <mxCell id="gLzJ9o-8NtYaDPZ5mTfc-83" value="(1,N)" style="text;html=1;strokeColor=none;fillColor=none;align=center;verticalAlign=middle;whiteSpace=wrap;rounded=0;fontFamily=Helvetica;fontSize=11;fontColor=default;" vertex="1" parent="1">
          <mxGeometry x="620" y="550" width="60" height="30" as="geometry" />
        </mxCell>
        <mxCell id="gLzJ9o-8NtYaDPZ5mTfc-84" value="" style="endArrow=classic;html=1;rounded=0;labelBackgroundColor=default;fontFamily=Helvetica;fontSize=11;fontColor=default;strokeColor=default;shape=connector;elbow=vertical;exitX=0.5;exitY=1;exitDx=0;exitDy=0;entryX=0.5;entryY=0;entryDx=0;entryDy=0;" edge="1" parent="1" source="gLzJ9o-8NtYaDPZ5mTfc-39">
          <mxGeometry width="50" height="50" relative="1" as="geometry">
            <mxPoint x="89" y="600" as="sourcePoint" />
            <mxPoint x="90" y="640" as="targetPoint" />
          </mxGeometry>
        </mxCell>
        <mxCell id="gLzJ9o-8NtYaDPZ5mTfc-86" value="" style="endArrow=classic;html=1;rounded=0;labelBackgroundColor=default;fontFamily=Helvetica;fontSize=11;fontColor=default;strokeColor=default;shape=connector;elbow=vertical;entryX=0.5;entryY=0;entryDx=0;entryDy=0;" edge="1" parent="1" target="gLzJ9o-8NtYaDPZ5mTfc-88">
          <mxGeometry width="50" height="50" relative="1" as="geometry">
            <mxPoint x="90" y="700" as="sourcePoint" />
            <mxPoint x="90" y="740" as="targetPoint" />
          </mxGeometry>
        </mxCell>
        <mxCell id="gLzJ9o-8NtYaDPZ5mTfc-88" value="Disciplina" style="rounded=0;whiteSpace=wrap;html=1;fontFamily=Helvetica;fontSize=11;fontColor=default;" vertex="1" parent="1">
          <mxGeometry x="30" y="760" width="120" height="60" as="geometry" />
        </mxCell>
        <mxCell id="gLzJ9o-8NtYaDPZ5mTfc-89" value="(1,N)" style="text;html=1;strokeColor=none;fillColor=none;align=center;verticalAlign=middle;whiteSpace=wrap;rounded=0;fontFamily=Helvetica;fontSize=11;fontColor=default;" vertex="1" parent="1">
          <mxGeometry x="80" y="730" width="60" height="30" as="geometry" />
        </mxCell>
        <mxCell id="gLzJ9o-8NtYaDPZ5mTfc-90" value="Pode ministrar" style="rhombus;whiteSpace=wrap;html=1;fontFamily=Helvetica;fontSize=11;fontColor=default;" vertex="1" parent="1">
          <mxGeometry x="45" y="640" width="90" height="60" as="geometry" />
        </mxCell>
        <mxCell id="gLzJ9o-8NtYaDPZ5mTfc-91" value="Nos" style="rhombus;whiteSpace=wrap;html=1;fontFamily=Helvetica;fontSize=11;fontColor=default;" vertex="1" parent="1">
          <mxGeometry x="210" y="755" width="80" height="70" as="geometry" />
        </mxCell>
        <mxCell id="gLzJ9o-8NtYaDPZ5mTfc-92" value="" style="endArrow=classic;html=1;rounded=0;labelBackgroundColor=default;fontFamily=Helvetica;fontSize=11;fontColor=default;strokeColor=default;shape=connector;elbow=vertical;exitX=1;exitY=0.5;exitDx=0;exitDy=0;entryX=0;entryY=0.5;entryDx=0;entryDy=0;" edge="1" parent="1" source="gLzJ9o-8NtYaDPZ5mTfc-88" target="gLzJ9o-8NtYaDPZ5mTfc-91">
          <mxGeometry width="50" height="50" relative="1" as="geometry">
            <mxPoint x="160" y="789.5" as="sourcePoint" />
            <mxPoint x="210" y="789.5" as="targetPoint" />
          </mxGeometry>
        </mxCell>
        <mxCell id="gLzJ9o-8NtYaDPZ5mTfc-93" value="Horaios" style="rounded=0;whiteSpace=wrap;html=1;fontFamily=Helvetica;fontSize=11;fontColor=default;" vertex="1" parent="1">
          <mxGeometry x="350" y="760" width="120" height="60" as="geometry" />
        </mxCell>
        <mxCell id="gLzJ9o-8NtYaDPZ5mTfc-94" value="" style="endArrow=classic;html=1;rounded=0;labelBackgroundColor=default;fontFamily=Helvetica;fontSize=11;fontColor=default;strokeColor=default;shape=connector;elbow=vertical;exitX=1;exitY=0.5;exitDx=0;exitDy=0;entryX=0;entryY=0.5;entryDx=0;entryDy=0;" edge="1" parent="1" source="gLzJ9o-8NtYaDPZ5mTfc-91" target="gLzJ9o-8NtYaDPZ5mTfc-93">
          <mxGeometry width="50" height="50" relative="1" as="geometry">
            <mxPoint x="300" y="789.5" as="sourcePoint" />
            <mxPoint x="340" y="789.5" as="targetPoint" />
          </mxGeometry>
        </mxCell>
        <mxCell id="gLzJ9o-8NtYaDPZ5mTfc-96" value="" style="ellipse;whiteSpace=wrap;html=1;fontFamily=Helvetica;fontSize=11;fontColor=default;" vertex="1" parent="1">
          <mxGeometry x="430" y="850" width="10" height="10" as="geometry" />
        </mxCell>
        <mxCell id="gLzJ9o-8NtYaDPZ5mTfc-97" value="" style="ellipse;whiteSpace=wrap;html=1;fontFamily=Helvetica;fontSize=11;fontColor=default;" vertex="1" parent="1">
          <mxGeometry x="430" y="880" width="10" height="10" as="geometry" />
        </mxCell>
        <mxCell id="gLzJ9o-8NtYaDPZ5mTfc-98" value="&lt;b&gt;ManhÃ£&lt;/b&gt;" style="text;html=1;strokeColor=none;fillColor=none;align=center;verticalAlign=middle;whiteSpace=wrap;rounded=0;fontFamily=Helvetica;fontSize=11;fontColor=default;" vertex="1" parent="1">
          <mxGeometry x="440" y="840" width="60" height="30" as="geometry" />
        </mxCell>
        <mxCell id="gLzJ9o-8NtYaDPZ5mTfc-99" value="&lt;b&gt;Noite&lt;/b&gt;" style="text;html=1;strokeColor=none;fillColor=none;align=center;verticalAlign=middle;whiteSpace=wrap;rounded=0;fontFamily=Helvetica;fontSize=11;fontColor=default;" vertex="1" parent="1">
          <mxGeometry x="440" y="870" width="60" height="30" as="geometry" />
        </mxCell>
        <mxCell id="gLzJ9o-8NtYaDPZ5mTfc-100" value="" style="endArrow=none;html=1;rounded=0;labelBackgroundColor=default;fontFamily=Helvetica;fontSize=11;fontColor=default;strokeColor=default;shape=connector;elbow=vertical;entryX=0;entryY=0;entryDx=0;entryDy=0;exitX=0.45;exitY=1;exitDx=0;exitDy=0;exitPerimeter=0;" edge="1" parent="1" source="gLzJ9o-8NtYaDPZ5mTfc-93" target="gLzJ9o-8NtYaDPZ5mTfc-96">
          <mxGeometry width="50" height="50" relative="1" as="geometry">
            <mxPoint x="404" y="825" as="sourcePoint" />
            <mxPoint x="424" y="845" as="targetPoint" />
          </mxGeometry>
        </mxCell>
        <mxCell id="gLzJ9o-8NtYaDPZ5mTfc-101" value="" style="endArrow=none;html=1;rounded=0;labelBackgroundColor=default;fontFamily=Helvetica;fontSize=11;fontColor=default;strokeColor=default;shape=connector;elbow=vertical;exitX=0.25;exitY=1;exitDx=0;exitDy=0;entryX=0;entryY=0;entryDx=0;entryDy=0;" edge="1" parent="1" source="gLzJ9o-8NtYaDPZ5mTfc-93" target="gLzJ9o-8NtYaDPZ5mTfc-97">
          <mxGeometry width="50" height="50" relative="1" as="geometry">
            <mxPoint x="370" y="860" as="sourcePoint" />
            <mxPoint x="440" y="910" as="targetPoint" />
          </mxGeometry>
        </mxCell>
        <mxCell id="gLzJ9o-8NtYaDPZ5mTfc-104" value="Pode ensinar" style="rhombus;whiteSpace=wrap;html=1;fontFamily=Helvetica;fontSize=11;fontColor=default;" vertex="1" parent="1">
          <mxGeometry x="320" y="450" width="90" height="70" as="geometry" />
        </mxCell>
        <mxCell id="gLzJ9o-8NtYaDPZ5mTfc-106" value="" style="endArrow=classic;html=1;rounded=0;labelBackgroundColor=default;fontFamily=Helvetica;fontSize=11;fontColor=default;strokeColor=default;shape=connector;elbow=vertical;exitX=1;exitY=1;exitDx=0;exitDy=0;entryX=0;entryY=0.5;entryDx=0;entryDy=0;" edge="1" parent="1" source="gLzJ9o-8NtYaDPZ5mTfc-104" target="gLzJ9o-8NtYaDPZ5mTfc-81">
          <mxGeometry width="50" height="50" relative="1" as="geometry">
            <mxPoint x="390" y="560" as="sourcePoint" />
            <mxPoint x="430" y="590" as="targetPoint" />
          </mxGeometry>
        </mxCell>
        <mxCell id="gLzJ9o-8NtYaDPZ5mTfc-107" value="(1,N)" style="text;html=1;strokeColor=none;fillColor=none;align=center;verticalAlign=middle;whiteSpace=wrap;rounded=0;fontFamily=Helvetica;fontSize=11;fontColor=default;" vertex="1" parent="1">
          <mxGeometry x="500" y="600" width="60" height="30" as="geometry" />
        </mxCell>
        <mxCell id="gLzJ9o-8NtYaDPZ5mTfc-108" value="(1,N)" style="text;html=1;strokeColor=none;fillColor=none;align=center;verticalAlign=middle;whiteSpace=wrap;rounded=0;fontFamily=Helvetica;fontSize=11;fontColor=default;" vertex="1" parent="1">
          <mxGeometry x="300" y="760" width="60" height="30" as="geometry" />
        </mxCell>
        <mxCell id="gLzJ9o-8NtYaDPZ5mTfc-109" value="Funcionario" style="rounded=0;whiteSpace=wrap;html=1;fontFamily=Helvetica;fontSize=11;fontColor=default;" vertex="1" parent="1">
          <mxGeometry x="220" y="-90" width="120" height="60" as="geometry" />
        </mxCell>
        <mxCell id="gLzJ9o-8NtYaDPZ5mTfc-110" value="" style="endArrow=classic;html=1;rounded=0;labelBackgroundColor=default;fontFamily=Helvetica;fontSize=11;fontColor=default;strokeColor=default;shape=connector;elbow=vertical;exitX=0.5;exitY=1;exitDx=0;exitDy=0;entryX=0.5;entryY=0;entryDx=0;entryDy=0;" edge="1" parent="1" source="gLzJ9o-8NtYaDPZ5mTfc-109" target="gLzJ9o-8NtYaDPZ5mTfc-2">
          <mxGeometry width="50" height="50" relative="1" as="geometry">
            <mxPoint x="279.5" y="-30" as="sourcePoint" />
            <mxPoint x="279.5" y="10" as="targetPoint" />
          </mxGeometry>
        </mxCell>
        <mxCell id="gLzJ9o-8NtYaDPZ5mTfc-111" value="&lt;b&gt;Num_Matricula&lt;/b&gt;" style="text;html=1;strokeColor=none;fillColor=none;align=center;verticalAlign=middle;whiteSpace=wrap;rounded=0;fontFamily=Helvetica;fontSize=11;fontColor=default;" vertex="1" parent="1">
          <mxGeometry x="230" y="-151" width="75" height="30" as="geometry" />
        </mxCell>
        <mxCell id="gLzJ9o-8NtYaDPZ5mTfc-112" value="&lt;b&gt;Nome&lt;/b&gt;" style="text;html=1;strokeColor=none;fillColor=none;align=center;verticalAlign=middle;whiteSpace=wrap;rounded=0;fontFamily=Helvetica;fontSize=11;fontColor=default;" vertex="1" parent="1">
          <mxGeometry x="150" y="-150" width="60" height="30" as="geometry" />
        </mxCell>
        <mxCell id="gLzJ9o-8NtYaDPZ5mTfc-113" value="&lt;b&gt;Dpto&lt;/b&gt;" style="text;html=1;strokeColor=none;fillColor=none;align=center;verticalAlign=middle;whiteSpace=wrap;rounded=0;fontFamily=Helvetica;fontSize=11;fontColor=default;" vertex="1" parent="1">
          <mxGeometry x="325" y="-150" width="90" height="30" as="geometry" />
        </mxCell>
        <mxCell id="gLzJ9o-8NtYaDPZ5mTfc-114" value="" style="endArrow=none;html=1;rounded=0;labelBackgroundColor=default;fontFamily=Helvetica;fontSize=11;fontColor=default;strokeColor=default;shape=connector;elbow=vertical;entryX=0.5;entryY=1;entryDx=0;entryDy=0;exitX=1;exitY=0;exitDx=0;exitDy=0;" edge="1" parent="1" source="gLzJ9o-8NtYaDPZ5mTfc-109" target="gLzJ9o-8NtYaDPZ5mTfc-113">
          <mxGeometry width="50" height="50" relative="1" as="geometry">
            <mxPoint x="340" y="-100" as="sourcePoint" />
            <mxPoint x="360" y="-120" as="targetPoint" />
            <Array as="points" />
          </mxGeometry>
        </mxCell>
        <mxCell id="gLzJ9o-8NtYaDPZ5mTfc-117" value="" style="endArrow=none;html=1;rounded=0;labelBackgroundColor=default;fontFamily=Helvetica;fontSize=11;fontColor=default;strokeColor=default;shape=connector;elbow=vertical;entryX=0.5;entryY=1;entryDx=0;entryDy=0;" edge="1" parent="1" target="gLzJ9o-8NtYaDPZ5mTfc-111">
          <mxGeometry width="50" height="50" relative="1" as="geometry">
            <mxPoint x="267" y="-90" as="sourcePoint" />
            <mxPoint x="267" y="-110" as="targetPoint" />
          </mxGeometry>
        </mxCell>
        <mxCell id="gLzJ9o-8NtYaDPZ5mTfc-118" value="" style="endArrow=none;html=1;rounded=0;labelBackgroundColor=default;fontFamily=Helvetica;fontSize=11;fontColor=default;strokeColor=default;shape=connector;elbow=vertical;entryX=0.5;entryY=1;entryDx=0;entryDy=0;exitX=0;exitY=0;exitDx=0;exitDy=0;" edge="1" parent="1" source="gLzJ9o-8NtYaDPZ5mTfc-109" target="gLzJ9o-8NtYaDPZ5mTfc-112">
          <mxGeometry width="50" height="50" relative="1" as="geometry">
            <mxPoint x="210" y="-100" as="sourcePoint" />
            <mxPoint x="190" y="-120" as="targetPoint" />
          </mxGeometry>
        </mxCell>
        <mxCell id="gLzJ9o-8NtYaDPZ5mTfc-121" value="Possui" style="rhombus;whiteSpace=wrap;html=1;fontFamily=Helvetica;fontSize=11;fontColor=default;" vertex="1" parent="1">
          <mxGeometry x="580" y="-80" width="80" height="60" as="geometry" />
        </mxCell>
        <mxCell id="gLzJ9o-8NtYaDPZ5mTfc-132" value="(1,1)" style="text;html=1;strokeColor=none;fillColor=none;align=center;verticalAlign=middle;whiteSpace=wrap;rounded=0;fontFamily=Helvetica;fontSize=11;fontColor=default;" vertex="1" parent="1">
          <mxGeometry x="280" y="-10" width="60" height="30" as="geometry" />
        </mxCell>
        <mxCell id="gLzJ9o-8NtYaDPZ5mTfc-133" value="Departamento" style="rounded=0;whiteSpace=wrap;html=1;fontFamily=Helvetica;fontSize=11;fontColor=default;" vertex="1" parent="1">
          <mxGeometry x="640" y="-181" width="120" height="60" as="geometry" />
        </mxCell>
        <mxCell id="gLzJ9o-8NtYaDPZ5mTfc-135" value="&lt;b&gt;Cod_Dpto&lt;/b&gt;" style="text;html=1;strokeColor=none;fillColor=none;align=center;verticalAlign=middle;whiteSpace=wrap;rounded=0;fontFamily=Helvetica;fontSize=11;fontColor=default;" vertex="1" parent="1">
          <mxGeometry x="640" y="-230" width="60" height="30" as="geometry" />
        </mxCell>
        <mxCell id="gLzJ9o-8NtYaDPZ5mTfc-136" value="&lt;b&gt;Nome_Dpto&lt;/b&gt;" style="text;html=1;strokeColor=none;fillColor=none;align=center;verticalAlign=middle;whiteSpace=wrap;rounded=0;fontFamily=Helvetica;fontSize=11;fontColor=default;" vertex="1" parent="1">
          <mxGeometry x="800" y="-166" width="60" height="30" as="geometry" />
        </mxCell>
        <mxCell id="gLzJ9o-8NtYaDPZ5mTfc-137" value="" style="endArrow=none;html=1;rounded=0;labelBackgroundColor=default;fontFamily=Helvetica;fontSize=11;fontColor=default;strokeColor=default;shape=connector;elbow=vertical;exitX=0.25;exitY=0;exitDx=0;exitDy=0;entryX=0.5;entryY=1;entryDx=0;entryDy=0;" edge="1" parent="1" source="gLzJ9o-8NtYaDPZ5mTfc-133" target="gLzJ9o-8NtYaDPZ5mTfc-135">
          <mxGeometry width="50" height="50" relative="1" as="geometry">
            <mxPoint x="719" y="-250" as="sourcePoint" />
            <mxPoint x="719" y="-270" as="targetPoint" />
          </mxGeometry>
        </mxCell>
        <mxCell id="gLzJ9o-8NtYaDPZ5mTfc-138" value="" style="endArrow=none;html=1;rounded=0;labelBackgroundColor=default;fontFamily=Helvetica;fontSize=11;fontColor=default;strokeColor=default;shape=connector;elbow=vertical;exitX=1;exitY=0.5;exitDx=0;exitDy=0;entryX=0;entryY=0.5;entryDx=0;entryDy=0;" edge="1" parent="1" source="gLzJ9o-8NtYaDPZ5mTfc-133" target="gLzJ9o-8NtYaDPZ5mTfc-136">
          <mxGeometry width="50" height="50" relative="1" as="geometry">
            <mxPoint x="820" y="-215" as="sourcePoint" />
            <mxPoint x="840" y="-215.5" as="targetPoint" />
          </mxGeometry>
        </mxCell>
        <mxCell id="gLzJ9o-8NtYaDPZ5mTfc-139" value="" style="endArrow=none;html=1;rounded=0;labelBackgroundColor=default;fontFamily=Helvetica;fontSize=11;fontColor=default;strokeColor=default;shape=connector;elbow=vertical;" edge="1" parent="1">
          <mxGeometry width="50" height="50" relative="1" as="geometry">
            <mxPoint x="99.5" y="120" as="sourcePoint" />
            <mxPoint x="99.5" y="110" as="targetPoint" />
          </mxGeometry>
        </mxCell>
        <mxCell id="gLzJ9o-8NtYaDPZ5mTfc-140" value="" style="endArrow=none;html=1;rounded=0;labelBackgroundColor=default;fontFamily=Helvetica;fontSize=11;fontColor=default;strokeColor=default;shape=connector;elbow=vertical;" edge="1" parent="1">
          <mxGeometry width="50" height="50" relative="1" as="geometry">
            <mxPoint x="520" y="107.5" as="sourcePoint" />
            <mxPoint x="545" y="137.5" as="targetPoint" />
          </mxGeometry>
        </mxCell>
        <mxCell id="gLzJ9o-8NtYaDPZ5mTfc-141" value="" style="endArrow=classic;html=1;rounded=0;labelBackgroundColor=default;fontFamily=Helvetica;fontSize=11;fontColor=default;strokeColor=default;shape=connector;elbow=vertical;exitX=1;exitY=0;exitDx=0;exitDy=0;entryX=0;entryY=1;entryDx=0;entryDy=0;" edge="1" parent="1" source="gLzJ9o-8NtYaDPZ5mTfc-3" target="gLzJ9o-8NtYaDPZ5mTfc-121">
          <mxGeometry width="50" height="50" relative="1" as="geometry">
            <mxPoint x="530" as="sourcePoint" />
            <mxPoint x="580" y="-20" as="targetPoint" />
          </mxGeometry>
        </mxCell>
        <mxCell id="gLzJ9o-8NtYaDPZ5mTfc-144" value="" style="endArrow=classic;html=1;rounded=0;labelBackgroundColor=default;fontFamily=Helvetica;fontSize=11;fontColor=default;strokeColor=default;shape=connector;elbow=vertical;entryX=0.5;entryY=1;entryDx=0;entryDy=0;exitX=1;exitY=0;exitDx=0;exitDy=0;" edge="1" parent="1" source="gLzJ9o-8NtYaDPZ5mTfc-121" target="gLzJ9o-8NtYaDPZ5mTfc-133">
          <mxGeometry width="50" height="50" relative="1" as="geometry">
            <mxPoint x="660" y="-80" as="sourcePoint" />
            <mxPoint x="710" y="-130" as="targetPoint" />
          </mxGeometry>
        </mxCell>
        <mxCell id="gLzJ9o-8NtYaDPZ5mTfc-145" value="(1,N)" style="text;html=1;strokeColor=none;fillColor=none;align=center;verticalAlign=middle;whiteSpace=wrap;rounded=0;fontFamily=Helvetica;fontSize=11;fontColor=default;" vertex="1" parent="1">
          <mxGeometry x="630" y="-120" width="60" height="30" as="geometry" />
        </mxCell>
        <mxCell id="gLzJ9o-8NtYaDPZ5mTfc-146" value="" style="endArrow=classic;html=1;rounded=0;labelBackgroundColor=default;fontFamily=Helvetica;fontSize=11;fontColor=default;strokeColor=default;shape=connector;elbow=vertical;exitX=0.667;exitY=0.017;exitDx=0;exitDy=0;exitPerimeter=0;entryX=0.5;entryY=1;entryDx=0;entryDy=0;" edge="1" parent="1" source="gLzJ9o-8NtYaDPZ5mTfc-133" target="gLzJ9o-8NtYaDPZ5mTfc-147">
          <mxGeometry width="50" height="50" relative="1" as="geometry">
            <mxPoint x="720" y="-220" as="sourcePoint" />
            <mxPoint x="720" y="-280" as="targetPoint" />
          </mxGeometry>
        </mxCell>
        <mxCell id="gLzJ9o-8NtYaDPZ5mTfc-147" value="Possui" style="rhombus;whiteSpace=wrap;html=1;fontFamily=Helvetica;fontSize=11;fontColor=default;" vertex="1" parent="1">
          <mxGeometry x="680" y="-320" width="80" height="60" as="geometry" />
        </mxCell>
        <mxCell id="gLzJ9o-8NtYaDPZ5mTfc-148" value="Chefe" style="rounded=0;whiteSpace=wrap;html=1;fontFamily=Helvetica;fontSize=11;fontColor=default;" vertex="1" parent="1">
          <mxGeometry x="660" y="-440" width="120" height="60" as="geometry" />
        </mxCell>
        <mxCell id="gLzJ9o-8NtYaDPZ5mTfc-149" value="(1,N)" style="text;html=1;strokeColor=none;fillColor=none;align=center;verticalAlign=middle;whiteSpace=wrap;rounded=0;fontFamily=Helvetica;fontSize=11;fontColor=default;" vertex="1" parent="1">
          <mxGeometry x="720" y="-380" width="60" height="30" as="geometry" />
        </mxCell>
        <mxCell id="gLzJ9o-8NtYaDPZ5mTfc-150" value="" style="endArrow=classic;html=1;rounded=0;labelBackgroundColor=default;fontFamily=Helvetica;fontSize=11;fontColor=default;strokeColor=default;shape=connector;elbow=vertical;exitX=0.5;exitY=0;exitDx=0;exitDy=0;entryX=0.5;entryY=1;entryDx=0;entryDy=0;" edge="1" parent="1" source="gLzJ9o-8NtYaDPZ5mTfc-147" target="gLzJ9o-8NtYaDPZ5mTfc-148">
          <mxGeometry width="50" height="50" relative="1" as="geometry">
            <mxPoint x="719" y="-330" as="sourcePoint" />
            <mxPoint x="719" y="-370" as="targetPoint" />
          </mxGeometry>
        </mxCell>
        <mxCell id="gLzJ9o-8NtYaDPZ5mTfc-151" value="(N,1)" style="text;html=1;strokeColor=none;fillColor=none;align=center;verticalAlign=middle;whiteSpace=wrap;rounded=0;fontFamily=Helvetica;fontSize=11;fontColor=default;" vertex="1" parent="1">
          <mxGeometry x="710" y="-211" width="60" height="30" as="geometry" />
        </mxCell>
      </root>
    </mxGraphModel>
  </diagram>
</mxfile>
